<svg width="57" height="57" viewBox="0 0 57 57" fill="none" xmlns="http://www.w3.org/2000/svg">
<path d="M28.0953 56.0754C43.612 56.0754 56.1907 43.5225 56.1907 28.0377C56.1907 12.5529 43.612 0 28.0953 0C12.5787 0 0 12.5529 0 28.0377C0 43.5225 12.5787 56.0754 28.0953 56.0754Z" fill="#0243A0"/>
<g style="mix-blend-mode:multiply" opacity="0.4">
<path d="M20.9165 40.6652L35.3257 55.0449C47.2559 51.8494 56.139 40.9745 56.139 27.9864V27.2133L44.8285 16.8022L20.9165 40.6652Z" fill="#FF805A"/>
</g>
<path d="M45.1902 17.1629L42.6079 14.5859C41.3684 13.349 39.251 13.349 38.0115 14.5859L23.2924 29.2233L16.9399 22.8323C15.7004 21.5953 13.583 21.5953 12.3435 22.8323L9.76117 25.4093C8.52167 26.6463 8.52167 28.7594 9.76117 29.9964L21.02 41.2836C22.2595 42.5206 24.3769 42.5206 25.6164 41.2836L28.1987 38.7066C28.1987 38.7066 28.457 38.4489 28.5603 38.2943L45.1902 21.75C46.4297 20.513 46.4297 18.3999 45.1902 17.1629Z" fill="white"/>
</svg>
