<svg width="259" height="119" viewBox="0 0 259 119" fill="none" xmlns="http://www.w3.org/2000/svg">
<path d="M153.407 46.2038L137.42 20.5435C131.883 12.1156 119.7 11.1739 112.862 18.6601L27.0551 112.732C24.1178 115.934 19.9285 117.77 15.4985 117.77C2.06402 117.77 -4.96621 102.186 4.03826 92.4866L72.5108 17.9539C85.9934 2.88725 101.306 0.0151756 105.736 0.0622588C105.736 0.0622588 126.441 -1.82107 137.035 15.1289" fill="#0243A0"/>
<path d="M209.263 60.3288L190.291 34.8568C185.572 27.653 175.123 26.8526 169.297 33.2559L95.8648 113.674C93.3609 116.405 89.7494 118.006 85.9936 118.006C74.4852 118.006 68.4662 104.681 76.2187 96.3474L134.772 32.5968C146.328 19.696 159.426 17.2476 163.182 17.2947C163.182 17.2947 180.902 15.6939 189.954 30.1955" fill="#0066FF"/>
<path d="M258.475 85.4241L236.373 51.8067C232.617 46.0625 224.238 45.4034 219.616 50.4884L160.918 114.804C158.896 117.017 156.055 118.241 153.021 118.241C143.824 118.241 139.009 107.6 145.221 100.962L191.976 49.9704C201.222 39.6592 211.671 37.7288 214.704 37.7288C214.704 37.7288 228.861 36.4576 236.084 48.04" fill="#39EABB"/>
</svg>
