<svg width="623" height="231" viewBox="0 0 623 231" fill="none" xmlns="http://www.w3.org/2000/svg">
<path d="M331.407 46.2038L315.42 20.5435C309.883 12.1156 297.7 11.1739 290.862 18.6601L205.055 112.732C202.118 115.934 197.929 117.77 193.499 117.77C180.064 117.77 173.034 102.186 182.038 92.4866L250.511 17.9539C263.993 2.88725 279.306 0.0151756 283.736 0.0622588C283.736 0.0622588 304.441 -1.82107 315.035 15.1289" fill="#0243A0"/>
<path d="M387.263 60.3288L368.291 34.8568C363.572 27.653 353.123 26.8526 347.297 33.2559L273.865 113.674C271.361 116.405 267.749 118.006 263.994 118.006C252.485 118.006 246.466 104.681 254.219 96.3474L312.772 32.5968C324.328 19.696 337.426 17.2476 341.182 17.2947C341.182 17.2947 358.902 15.6939 367.954 30.1955" fill="#0066FF"/>
<path d="M436.475 85.4241L414.373 51.8067C410.617 46.0625 402.238 45.4034 397.616 50.4884L338.918 114.804C336.896 117.017 334.055 118.241 331.021 118.241C321.824 118.241 317.009 107.6 323.221 100.962L369.976 49.9704C379.222 39.6592 389.671 37.7288 392.704 37.7288C392.704 37.7288 406.861 36.4576 414.084 48.04" fill="#39EABB"/>
<g clip-path="url(#clip0_13_3634)">
<path d="M66.3098 219H63.7028L54.7758 168.677L33.6828 216.551H32.6558L11.5628 168.756L2.63581 219H0.0288086L9.82481 163.7H12.1158L33.1298 211.811L54.3018 163.7H56.5928L66.3098 219ZM115.952 176.34L118.085 176.419V219.079H115.873L115.636 207.94C112.16 215.129 105.05 219.869 96.123 219.869C83.72 219.869 74.398 210.31 74.398 197.749C74.398 185.109 83.72 175.55 96.123 175.55C105.05 175.55 112.239 180.29 115.636 187.558L115.952 176.34ZM96.281 217.42C107.42 217.42 115.557 209.125 115.557 197.749C115.557 186.373 107.42 177.999 96.281 177.999C85.221 177.999 76.926 186.531 76.926 197.749C76.926 208.967 85.221 217.42 96.281 217.42ZM160.204 163.542V165.675H140.375V163.542H160.204ZM165.339 176.34H166.84V219H164.391V181.08L135.161 219H133.66V176.34H136.109V214.181L165.339 176.34Z" fill="#0243A0"/>
<path d="M244.986 219H242.379L233.452 168.677L212.359 216.551H211.332L190.239 168.756L181.312 219H178.705L188.501 163.7H190.792L211.806 211.811L232.978 163.7H235.269L244.986 219ZM295.497 197.433C295.497 197.749 295.497 198.144 295.418 198.46H255.602C255.997 209.362 263.976 217.341 274.483 217.341C282.067 217.341 288.071 213.47 291.468 206.834H294.154C290.125 215.287 283.252 219.869 274.483 219.869C262.317 219.869 253.153 210.31 253.153 197.67C253.153 185.109 262.317 175.55 274.483 175.55C286.807 175.55 295.497 185.109 295.497 197.433ZM274.483 177.999C264.213 177.999 256.392 185.583 255.681 196.09H292.969C292.337 185.267 284.516 177.999 274.483 177.999ZM338.951 216.63H345.113V231.008H342.743V219H301.663V231.008H299.293V216.63H304.033C307.983 212.917 308.852 208.019 311.143 176.34H338.951V216.63ZM313.434 178.631C311.538 206.597 310.432 212.759 307.035 216.63H336.502V178.631H313.434ZM387.372 176.34H388.873V219H386.424V181.08L357.194 219H355.693V176.34H358.142V214.181L387.372 176.34ZM442.213 176.34L444.346 176.419V219.079H442.134L441.897 207.94C438.421 215.129 431.311 219.869 422.384 219.869C409.981 219.869 400.659 210.31 400.659 197.749C400.659 185.109 409.981 175.55 422.384 175.55C431.311 175.55 438.5 180.29 441.897 187.558L442.213 176.34ZM422.542 217.42C433.681 217.42 441.818 209.125 441.818 197.749C441.818 186.373 433.681 177.999 422.542 177.999C411.482 177.999 403.187 186.531 403.187 197.749C403.187 208.967 411.482 217.42 422.542 217.42Z" fill="#0066FF"/>
<path d="M522.489 219H519.882L510.955 168.677L489.862 216.551H488.835L467.742 168.756L458.815 219H456.208L466.004 163.7H468.295L489.309 211.811L510.481 163.7H512.772L522.489 219ZM573 197.433C573 197.749 573 198.144 572.921 198.46H533.105C533.5 209.362 541.479 217.341 551.986 217.341C559.57 217.341 565.574 213.47 568.971 206.834H571.657C567.628 215.287 560.755 219.869 551.986 219.869C539.82 219.869 530.656 210.31 530.656 197.67C530.656 185.109 539.82 175.55 551.986 175.55C564.31 175.55 573 185.109 573 197.433ZM551.986 177.999C541.716 177.999 533.895 185.583 533.184 196.09H570.472C569.84 185.267 562.019 177.999 551.986 177.999ZM616.454 216.63H622.616V231.008H620.246V219H579.166V231.008H576.796V216.63H581.536C585.486 212.917 586.355 208.019 588.646 176.34H616.454V216.63ZM590.937 178.631C589.041 206.597 587.935 212.759 584.538 216.63H614.005V178.631H590.937Z" fill="#39EABB"/>
</g>
<defs>
<clipPath id="clip0_13_3634">
<rect width="623" height="68" fill="white" transform="translate(0 163)"/>
</clipPath>
</defs>
</svg>
