<svg width="166" height="82" viewBox="0 0 166 82" fill="none" xmlns="http://www.w3.org/2000/svg">
<path d="M17.69 78.0001H16.997L14.624 64.6231L9.01705 77.3491H8.74405L3.13704 64.6441L0.764045 78.0001H0.0710449L2.67504 63.3001H3.28404L8.87004 76.0891L14.498 63.3001H15.107L17.69 78.0001ZM30.886 66.6601L31.453 66.6811V78.0211H30.865L30.802 75.0601C29.878 76.9711 27.988 78.2311 25.615 78.2311C22.318 78.2311 19.84 75.6901 19.84 72.3511C19.84 68.9911 22.318 66.4501 25.615 66.4501C27.988 66.4501 29.899 67.7101 30.802 69.6421L30.886 66.6601ZM25.657 77.5801C28.618 77.5801 30.781 75.3751 30.781 72.3511C30.781 69.3271 28.618 67.1011 25.657 67.1011C22.717 67.1011 20.512 69.3691 20.512 72.3511C20.512 75.3331 22.717 77.5801 25.657 77.5801ZM42.6492 63.2581V63.8251H37.3782V63.2581H42.6492ZM44.0142 66.6601H44.4132V78.0001H43.7622V67.9201L35.9922 78.0001H35.5932V66.6601H36.2442V76.7191L44.0142 66.6601ZM65.1861 78.0001H64.4931L62.1201 64.6231L56.5131 77.3491H56.2401L50.6331 64.6441L48.2601 78.0001H47.5671L50.1711 63.3001H50.7801L56.3661 76.0891L61.9941 63.3001H62.6031L65.1861 78.0001ZM78.6131 72.2671C78.6131 72.3511 78.6131 72.4561 78.5921 72.5401H68.0081C68.1131 75.4381 70.2341 77.5591 73.0271 77.5591C75.0431 77.5591 76.6391 76.5301 77.5421 74.7661H78.2561C77.1851 77.0131 75.3581 78.2311 73.0271 78.2311C69.7931 78.2311 67.3571 75.6901 67.3571 72.3301C67.3571 68.9911 69.7931 66.4501 73.0271 66.4501C76.3031 66.4501 78.6131 68.9911 78.6131 72.2671ZM73.0271 67.1011C70.2971 67.1011 68.2181 69.1171 68.0291 71.9101H77.9411C77.7731 69.0331 75.6941 67.1011 73.0271 67.1011ZM90.1641 77.3701H91.8021V81.1921H91.1721V78.0001H80.2521V81.1921H79.6221V77.3701H80.8821C81.9321 76.3831 82.1631 75.0811 82.7721 66.6601H90.1641V77.3701ZM83.3811 67.2691C82.8771 74.7031 82.5831 76.3411 81.6801 77.3701H89.5131V67.2691H83.3811ZM103.036 66.6601H103.435V78.0001H102.784V67.9201L95.0136 78.0001H94.6146V66.6601H95.2656V76.7191L103.036 66.6601ZM117.614 66.6601L118.181 66.6811V78.0211H117.593L117.53 75.0601C116.606 76.9711 114.716 78.2311 112.343 78.2311C109.046 78.2311 106.568 75.6901 106.568 72.3511C106.568 68.9911 109.046 66.4501 112.343 66.4501C114.716 66.4501 116.627 67.7101 117.53 69.6421L117.614 66.6601ZM112.385 77.5801C115.346 77.5801 117.509 75.3751 117.509 72.3511C117.509 69.3271 115.346 67.1011 112.385 67.1011C109.445 67.1011 107.24 69.3691 107.24 72.3511C107.24 75.3331 109.445 77.5801 112.385 77.5801ZM138.953 78.0001H138.26L135.887 64.6231L130.28 77.3491H130.007L124.4 64.6441L122.027 78.0001H121.334L123.938 63.3001H124.547L130.133 76.0891L135.761 63.3001H136.37L138.953 78.0001ZM152.38 72.2671C152.38 72.3511 152.38 72.4561 152.359 72.5401H141.775C141.88 75.4381 144.001 77.5591 146.794 77.5591C148.81 77.5591 150.406 76.5301 151.309 74.7661H152.023C150.952 77.0131 149.125 78.2311 146.794 78.2311C143.56 78.2311 141.124 75.6901 141.124 72.3301C141.124 68.9911 143.56 66.4501 146.794 66.4501C150.07 66.4501 152.38 68.9911 152.38 72.2671ZM146.794 67.1011C144.064 67.1011 141.985 69.1171 141.796 71.9101H151.708C151.54 69.0331 149.461 67.1011 146.794 67.1011ZM163.931 77.3701H165.569V81.1921H164.939V78.0001H154.019V81.1921H153.389V77.3701H154.649C155.699 76.3831 155.93 75.0811 156.539 66.6601H163.931V77.3701ZM157.148 67.2691C156.644 74.7031 156.35 76.3411 155.447 77.3701H163.28V67.2691H157.148Z" fill="white"/>
<path d="M94.0225 25.0037L89.3732 17.309C87.7636 14.786 84.2093 14.5035 82.2267 16.7411L57.229 44.9586C56.3751 45.9234 55.1525 46.4744 53.8696 46.4744C49.9605 46.4744 47.9079 41.7999 50.5382 38.8857L70.4647 16.525C74.3933 12.0074 78.8533 11.1428 80.1418 11.1598C80.1418 11.1598 86.1708 10.5947 89.2554 15.6802" fill="white"/>
<path d="M110.287 29.2417L104.76 21.5937C103.383 19.4352 100.342 19.1936 98.645 21.1078L77.2576 45.2498C76.5271 46.0748 75.4812 46.5466 74.3833 46.5466C71.0379 46.5466 69.2825 42.5474 71.5329 40.0541L88.5808 20.9227C91.9416 17.0577 95.7581 16.3189 96.8602 16.3316C96.8602 16.3316 102.018 15.8485 104.657 20.1994" fill="white"/>
<path d="M124.62 36.7667L118.183 26.6776C117.083 24.9528 114.653 24.7593 113.297 26.2891L96.2071 45.5801C95.6224 46.2398 94.7882 46.617 93.9105 46.617C91.2381 46.617 89.8346 43.4216 91.6335 41.4284L105.256 26.1408C107.941 23.0514 110.992 22.4623 111.871 22.4722C111.871 22.4722 115.993 22.0865 118.102 25.563" fill="white"/>
</svg>
