<svg width="387" height="43" viewBox="0 0 387 43" fill="none" xmlns="http://www.w3.org/2000/svg">
<g clip-path="url(#clip0_18_3638)">
<path d="M41.61 35H39.993L34.456 3.78699L21.373 33.481H20.736L7.65302 3.83599L2.11602 35H0.499023L6.57502 0.699989H7.99602L21.03 30.541L34.162 0.699989H35.583L41.61 35ZM72.4008 8.53999L73.7238 8.58899V35.049H72.3518L72.2048 28.14C70.0488 32.599 65.6388 35.539 60.1018 35.539C52.4088 35.539 46.6268 29.61 46.6268 21.819C46.6268 13.979 52.4088 8.04999 60.1018 8.04999C65.6388 8.04999 70.0978 10.99 72.2048 15.498L72.4008 8.53999ZM60.1998 34.02C67.1088 34.02 72.1558 28.875 72.1558 21.819C72.1558 14.763 67.1088 9.56899 60.1998 9.56899C53.3398 9.56899 48.1948 14.861 48.1948 21.819C48.1948 28.777 53.3398 34.02 60.1998 34.02ZM99.848 0.60199V1.92499H87.549V0.60199H99.848ZM103.033 8.53999H103.964V35H102.445V11.48L84.315 35H83.384V8.53999H84.903V32.011L103.033 8.53999ZM152.434 35H150.817L145.28 3.78699L132.197 33.481H131.56L118.477 3.83599L112.94 35H111.323L117.399 0.699989H118.82L131.854 30.541L144.986 0.699989H146.407L152.434 35ZM183.764 21.623C183.764 21.819 183.764 22.064 183.715 22.26H159.019C159.264 29.022 164.213 33.971 170.73 33.971C175.434 33.971 179.158 31.57 181.265 27.454H182.931C180.432 32.697 176.169 35.539 170.73 35.539C163.184 35.539 157.5 29.61 157.5 21.77C157.5 13.979 163.184 8.04999 170.73 8.04999C178.374 8.04999 183.764 13.979 183.764 21.623ZM170.73 9.56899C164.36 9.56899 159.509 14.273 159.068 20.79H182.196C181.804 14.077 176.953 9.56899 170.73 9.56899ZM210.716 33.53H214.538V42.448H213.068V35H187.588V42.448H186.118V33.53H189.058C191.508 31.227 192.047 28.189 193.468 8.53999H210.716V33.53ZM194.889 9.96099C193.713 27.307 193.027 31.129 190.92 33.53H209.197V9.96099H194.889ZM240.75 8.53999H241.681V35H240.162V11.48L222.032 35H221.101V8.53999H222.62V32.011L240.75 8.53999ZM274.765 8.53999L276.088 8.58899V35.049H274.716L274.569 28.14C272.413 32.599 268.003 35.539 262.466 35.539C254.773 35.539 248.991 29.61 248.991 21.819C248.991 13.979 254.773 8.04999 262.466 8.04999C268.003 8.04999 272.462 10.99 274.569 15.498L274.765 8.53999ZM262.564 34.02C269.473 34.02 274.52 28.875 274.52 21.819C274.52 14.763 269.473 9.56899 262.564 9.56899C255.704 9.56899 250.559 14.861 250.559 21.819C250.559 28.777 255.704 34.02 262.564 34.02ZM324.556 35H322.939L317.402 3.78699L304.319 33.481H303.682L290.599 3.83599L285.062 35H283.445L289.521 0.699989H290.942L303.976 30.541L317.108 0.699989H318.529L324.556 35ZM355.886 21.623C355.886 21.819 355.886 22.064 355.837 22.26H331.141C331.386 29.022 336.335 33.971 342.852 33.971C347.556 33.971 351.28 31.57 353.387 27.454H355.053C352.554 32.697 348.291 35.539 342.852 35.539C335.306 35.539 329.622 29.61 329.622 21.77C329.622 13.979 335.306 8.04999 342.852 8.04999C350.496 8.04999 355.886 13.979 355.886 21.623ZM342.852 9.56899C336.482 9.56899 331.631 14.273 331.19 20.79H354.318C353.926 14.077 349.075 9.56899 342.852 9.56899ZM382.838 33.53H386.66V42.448H385.19V35H359.71V42.448H358.24V33.53H361.18C363.63 31.227 364.169 28.189 365.59 8.53999H382.838V33.53ZM367.011 9.96099C365.835 27.307 365.149 31.129 363.042 33.53H381.319V9.96099H367.011Z" fill="white"/>
</g>
<defs>
<clipPath id="clip0_18_3638">
<rect width="387" height="43" fill="white"/>
</clipPath>
</defs>
</svg>
