<svg width="24" height="24" viewBox="0 0 24 24" fill="none" xmlns="http://www.w3.org/2000/svg">
<g clip-path="url(#clip0_66_4)">
<path d="M23.6732 11.211L16.5312 4.069C16.0954 3.63325 15.3887 3.63325 14.953 4.069C14.5171 4.50484 14.5171 5.21137 14.953 5.64721L20.1899 10.8842H1.11594C0.499673 10.8842 0 11.3838 0 12.0001C0 12.6163 0.499673 13.116 1.11594 13.116H20.1899L14.9531 18.353C14.5173 18.7889 14.5173 19.4954 14.9531 19.9312C15.171 20.149 15.4566 20.2581 15.7422 20.2581C16.0278 20.2581 16.3134 20.149 16.5313 19.9312L23.6732 12.7892C24.109 12.3534 24.109 11.6468 23.6732 11.211Z" fill="black"/>
</g>
<defs>
<clipPath id="clip0_66_4">
<rect width="24" height="24" fill="white"/>
</clipPath>
</defs>
</svg>
